# xmcd
#
# Track frame offsets: 
#        150
#        20862
#        42020
#        64130
#        86537
#        109207
#        130330
#        147400
#        167012
#        186170
#
# Disc length: 2785 seconds
#
# Revision: 1
# Processed by: cddbd v1.5.2PL0 Copyright (c) Steve Scherf et al.
# Submitted via: ExactAudioCopy v1.0b1
#
DISCID=8d0adf0a
DTITLE=鈴木聖美 - Cotton
DYEAR=1988
DGENRE=JPop
TTITLE0=Sunday Morning
TTITLE1=ファンタジー
TTITLE2=夜明けのスターライト
TTITLE3=TELL ME
TTITLE4=午前０時のYES
TTITLE5=近頃の男
TTITLE6=TRUTH
TTITLE7=彼女たちは止まらない
TTITLE8=You are my dream
TTITLE9=WHY?
EXTD=YEAR: 1988
EXTT0=
EXTT1=
EXTT2=
EXTT3=
EXTT4=
EXTT5=
EXTT6=
EXTT7=
EXTT8=
EXTT9=
PLAYORDER=
